<svg id="Layer_1" data-name="Layer 1" xmlns="http://www.w3.org/2000/svg" viewBox="0 0 256 256"><defs><style>.cls-1{fill:#539ad4;}.cls-2{fill:#3473a6;}.cls-3{fill:#f1f2f2;}.cls-4{fill:#7cc3ec;}</style></defs><title>application_icon</title><path class="cls-1" d="M40.14,115.2v-.58h-9.6a3.78,3.78,0,0,0-3.78,3.78V227.11a3.78,3.78,0,0,0,3.78,3.78h108.7a3.78,3.78,0,0,0,3.78-3.78v-2.05L44.89,126.92A16.18,16.18,0,0,1,40.14,115.2Z"/><path class="cls-2" d="M46.91,46.91l-.77,68.36a10.24,10.24,0,0,0,3,7.4l101.4,101.4a10.6,10.6,0,0,0,15-.23L241,148.32a10.6,10.6,0,0,0,.24-15L139.87,31.93a10.24,10.24,0,0,0-7.4-3l-68.35.77A17.51,17.51,0,0,0,46.91,46.91Z"/><circle class="cls-3" cx="96.33" cy="79.13" r="17.82"/><rect class="cls-3" x="114.12" y="110.82" width="21.39" height="64.17" rx="2.88" ry="2.88" transform="translate(-64.49 130.12) rotate(-45)"/><rect class="cls-3" x="157.19" y="72.61" width="21.39" height="85.56" rx="2.88" ry="2.88" transform="translate(-32.42 152.51) rotate(-45)"/><path class="cls-4" d="M106.14,188.17l-10,14.71-23-47.74-3.8-3.8-33.2,68.77a1.93,1.93,0,0,0,1.74,2.78H133.6a1.94,1.94,0,0,0,1.6-3l-5.59-8.23Z"/></svg>